<svg id="f46733e0-505c-4b48-ad09-da44e0f12d93" data-name="Layer 1" xmlns="http://www.w3.org/2000/svg" viewBox="0 0 50 50">
  <title>facebook</title>
  <path d="M28.57,50.25V27.47H31.2c1.44,0,2.89,0,4.33,0,.23,0,.62-.28.65-.47.4-2.78.74-5.55,1.12-8.43H28.67c0-2.46-.13-4.83,0-7.17.13-1.67,1.13-2.47,2.84-2.64,1.35-.14,2.72-.12,4.08-.16.62,0,1.24,0,1.92,0V.63C37.12.58,36.7.5,36.27.48,33.07.32,29.85-.1,26.7.86a10,10,0,0,0-7.23,9c-.17,2.55-.12,5.12-.17,7.67,0,.32,0,.64,0,1H11.68v8.9h7.55V50.19Z" />
</svg>
