<svg id="986d5aba-036e-42c6-b771-ad8fbb558e9c" data-name="Layer 1" xmlns="http://www.w3.org/2000/svg" viewBox="0 0 50 50"><title>instagram</title><path d="M49.76,12.54A12.41,12.41,0,0,0,37.36.17h0L12.53.24A12.38,12.38,0,0,0,.17,12.68L.23,37.47A12.4,12.4,0,0,0,12.62,49.83h0l24.79-.06A12.42,12.42,0,0,0,49.83,37.33ZM36.83,8.83a.29.29,0,0,1,.29-.29h4A1.9,1.9,0,0,1,43,10.44v4a.29.29,0,0,1-.29.29H37.12a.29.29,0,0,1-.29-.29ZM34,27a9,9,0,0,1-9,9h0a9,9,0,0,1-3.57-17.22A8.86,8.86,0,0,1,25,18.08h0a9,9,0,0,1,9,9Zm3.47,19.35-24.79.06h0a9,9,0,0,1-9-9L3.56,18.82H15.79A12.35,12.35,0,0,0,25,39.42h0a12.35,12.35,0,0,0,9.19-20.6H46.4l0,18.52A9,9,0,0,1,37.45,46.39Z" style="fill:#010101"/></svg>