<svg id="9c4a84a1-0c1e-4767-8beb-99c03a45336b" data-name="Layer 1" xmlns="http://www.w3.org/2000/svg" viewBox="0 0 295.63 238.81">
  <title>elite-ogo-color</title>
  <g style="opacity:0.1">
    <path class="teal" d="M-108.44-.66a92.58,92.58,0,0,0,18.5,3.25,181.75,181.75,0,0,0,18.79.55c6.27-.11,12.53-.47,18.78-1,3.12-.26,6.24-.57,9.36-.9S-36.8.52-33.74,0A88.21,88.21,0,0,0,.41-14.39C10.58-21.48,19.23-30.9,24.59-42a88.88,88.88,0,0,0,5.86-17.59A59.63,59.63,0,0,0,32-77.89a23.92,23.92,0,0,0-2.36-8.54,15,15,0,0,0-2.53-3.46,12.35,12.35,0,0,0-3.52-2.36,29.2,29.2,0,0,0-8.66-2.29,60.25,60.25,0,0,0-9.19-.37,81.35,81.35,0,0,0-18.27,2.69c-1.48.41-2.94.87-4.35,1.41a21.26,21.26,0,0,0-4,2l-2,1.17-1,.58c-.32.2-.62.45-.93.67-1.21.93-2.48,1.78-3.64,2.77A59,59,0,0,0-40.36-69.73a89.73,89.73,0,0,0-8.16,16.59,140,140,0,0,0-5.21,17.86,186,186,0,0,0-2.88,18.44A214,214,0,0,0-57,20.53a200.34,200.34,0,0,0,6.16,36.86A128.13,128.13,0,0,0-44.69,75l.94,2.12c.32.71.69,1.38,1,2.07l1.05,2.06,1.14,2c.76,1.37,1.52,2.73,2.32,4.07s1.57,2.7,2.4,4A125.11,125.11,0,0,0-25,106.59a72.05,72.05,0,0,0,13.54,12.64,57.18,57.18,0,0,0,16.59,8.08,80.74,80.74,0,0,0,18.35,3,51.49,51.49,0,0,0,18.4-2,41.26,41.26,0,0,0,15.87-9.43,86.58,86.58,0,0,0,12-14.39C73.29,99.38,76.57,94,79.79,88.63c-3.09,5.47-6.24,10.91-9.68,16.17A86.8,86.8,0,0,1,58.3,119.52a42.24,42.24,0,0,1-16.07,9.94,52.78,52.78,0,0,1-18.82,2.35,81.29,81.29,0,0,1-18.77-2.86,59,59,0,0,1-17.2-8.15A74.05,74.05,0,0,1-26.62,108,127.29,127.29,0,0,1-37.77,92.6c-.86-1.33-1.66-2.69-2.47-4s-1.61-2.72-2.39-4.08l-1.17-2.06-1.11-2.12c-.36-.71-.76-1.41-1.09-2.13L-47,76a128.17,128.17,0,0,1-6.34-17.93,203,203,0,0,1-6.38-37.33,216.75,216.75,0,0,1,.23-37.88,188.91,188.91,0,0,1,2.87-18.77,141.14,141.14,0,0,1,5.27-18.3,92.7,92.7,0,0,1,8.5-17.12A61.89,61.89,0,0,1-30.28-85.85c1.23-1,2.58-1.94,3.86-2.91.33-.23.64-.49,1-.7l1-.62,2.09-1.23a23.91,23.91,0,0,1,4.42-2.13c1.53-.57,3.07-1.05,4.61-1.48A84.06,84.06,0,0,1,5.66-97.64a62.94,62.94,0,0,1,9.61.42,31.78,31.78,0,0,1,9.47,2.56A15,15,0,0,1,29-91.77a17.67,17.67,0,0,1,3,4.12,26.49,26.49,0,0,1,2.62,9.51A61.15,61.15,0,0,1,32.9-59a91.22,91.22,0,0,1-6.22,18A74.76,74.76,0,0,1,1.49-12.83a89.51,89.51,0,0,1-35,14.23c-3.13.52-6.28.87-9.4,1.14s-6.27.53-9.41.73c-6.28.41-12.56.65-18.86.66A180.34,180.34,0,0,1-90,3,92.8,92.8,0,0,1-108.44-.66Z" transform="translate(122.29 97.67)" />
  </g>
  <path class="teal" d="M-113.06,4a92.46,92.46,0,0,0,18.53,3,181.84,181.84,0,0,0,18.76.32Q-66.39,7-57,6.09c3.12-.29,6.23-.62,9.34-1s6.18-.78,9.2-1.37A87.22,87.22,0,0,0-4.87-10.73,79.88,79.88,0,0,0,8.74-22.92,66.49,66.49,0,0,0,18.74-38a87.56,87.56,0,0,0,5.68-17.33,58.22,58.22,0,0,0,1.46-17.81,22.39,22.39,0,0,0-2.23-8,13.48,13.48,0,0,0-2.26-3.06,10.82,10.82,0,0,0-3.1-2,27.69,27.69,0,0,0-8.18-2.1,58.67,58.67,0,0,0-8.93-.31,81.82,81.82,0,0,0-17.87,2.66c-1.43.4-2.85.85-4.19,1.36a19.67,19.67,0,0,0-3.81,1.87l-1.9,1.12-.95.56c-.31.19-.6.43-.89.65-1.17.9-2.39,1.72-3.52,2.68A57.3,57.3,0,0,0-43.53-64.19a88,88,0,0,0-8,16.27,138.41,138.41,0,0,0-5.14,17.62,184.35,184.35,0,0,0-2.86,18.25c-.57,6.15-1,12.32-1,18.51s.13,12.38.61,18.56A198.79,198.79,0,0,0-54,61.6,126.84,126.84,0,0,0-48,79l.91,2.1c.31.7.67,1.36,1,2l1,2,1.12,2c.75,1.36,1.5,2.73,2.29,4.06s1.55,2.69,2.37,4a123.88,123.88,0,0,0,10.61,15.11,72.39,72.39,0,0,0,13.24,12.51A56.09,56.09,0,0,0,.8,131,79.85,79.85,0,0,0,18.9,134.1a50.76,50.76,0,0,0,18.15-1.76,41.09,41.09,0,0,0,15.74-9.15A86.23,86.23,0,0,0,64.91,109c3.62-5.11,7-10.43,10.27-15.77-3,5.51-6.09,11-9.46,16.32A87,87,0,0,1,54,124.5a42.39,42.39,0,0,1-16.2,10.22,53.57,53.57,0,0,1-19.07,2.55,87.09,87.09,0,0,1-9.55-.81c-1.58-.17-3.17-.52-4.75-.81-.79-.16-1.59-.27-2.37-.48l-2.34-.64a60.08,60.08,0,0,1-17.58-8.16,73.84,73.84,0,0,1-14.37-13A128.65,128.65,0,0,1-43.54,97.93c-.87-1.33-1.68-2.7-2.51-4.05s-1.63-2.72-2.42-4.09l-1.19-2.06-1.14-2.15c-.37-.72-.78-1.43-1.12-2.16l-1-2.2A129.6,129.6,0,0,1-59.43,63.1,204.61,204.61,0,0,1-66,25.49a215.17,215.17,0,0,1,.21-38.18,190.59,190.59,0,0,1,2.89-19,142.73,142.73,0,0,1,5.34-18.54A94.41,94.41,0,0,1-48.9-67.63,63.6,63.6,0,0,1-36-82.54c1.27-1.07,2.66-2,4-3,.34-.24.66-.51,1-.72l1.08-.64,2.16-1.27a25.52,25.52,0,0,1,4.65-2.24c1.59-.6,3.18-1.09,4.77-1.53A83.77,83.77,0,0,1,1-94.7a64.63,64.63,0,0,1,9.87.47,33.38,33.38,0,0,1,9.95,2.74,16.57,16.57,0,0,1,4.67,3.21,19.22,19.22,0,0,1,3.27,4.52A28,28,0,0,1,31.5-73.68a62.5,62.5,0,0,1-1.82,19.57,92.6,92.6,0,0,1-6.4,18.28A75.51,75.51,0,0,1-2.47-7.26,90.48,90.48,0,0,1-37.95,6.85c-3.16.5-6.36.82-9.48,1.07s-6.28.48-9.43.65c-6.29.35-12.6.56-18.9.47A180.28,180.28,0,0,1-94.63,7.91,92.94,92.94,0,0,1-113.06,4Z" transform="translate(122.29 97.67)" />
  <g style="opacity:0.30000000000000004">
  <path class="teal" d="M-122.29,4A92.63,92.63,0,0,0-103.8,7.29,180.81,180.81,0,0,0-85,7.87c6.27-.11,12.54-.45,18.79-1,3.13-.25,6.25-.56,9.37-.88s6.22-.72,9.29-1.28A88.4,88.4,0,0,0-13.31-9.59C-3.11-16.68,5.59-26.12,11-37.28a89.16,89.16,0,0,0,5.9-17.64A59.81,59.81,0,0,0,18.47-73.3,24.22,24.22,0,0,0,16.08-82a15.36,15.36,0,0,0-2.59-3.53,12.66,12.66,0,0,0-3.61-2.42,29.5,29.5,0,0,0-8.75-2.32,60.57,60.57,0,0,0-9.24-.37,81.7,81.7,0,0,0-18.35,2.69c-1.49.41-3,.87-4.38,1.42a21.56,21.56,0,0,0-4.08,2l-2,1.17-1,.59c-.33.2-.62.45-.93.67-1.22.93-2.5,1.79-3.67,2.79a59.34,59.34,0,0,0-12,14,90.07,90.07,0,0,0-8.2,16.65,140.14,140.14,0,0,0-5.21,17.91A186.38,186.38,0,0,0-70.8-12.26a214.28,214.28,0,0,0-.35,37.43A200.65,200.65,0,0,0-65,62.08a128.13,128.13,0,0,0,6.16,17.63l.95,2.13c.32.71.7,1.38,1,2.08L-55.77,86l1.14,2c.76,1.37,1.53,2.73,2.33,4.07s1.57,2.7,2.41,4A125.35,125.35,0,0,0-39,111.37,72.29,72.29,0,0,0-25.44,124a57.39,57.39,0,0,0,16.67,8.09,80.91,80.91,0,0,0,18.4,3,51.64,51.64,0,0,0,18.45-2A41.4,41.4,0,0,0,44,123.64a86.49,86.49,0,0,0,12-14.43c3.53-5.19,6.79-10.56,10-16-3.12,5.45-6.29,10.88-9.75,16.12a86.9,86.9,0,0,1-11.82,14.68,42.11,42.11,0,0,1-16,9.88,52.62,52.62,0,0,1-18.77,2.31,81.16,81.16,0,0,1-18.72-2.88,58.78,58.78,0,0,1-17.13-8.14,73.82,73.82,0,0,1-14-12.81A127,127,0,0,1-51.39,97.07c-.86-1.33-1.65-2.68-2.47-4s-1.6-2.71-2.38-4.08L-57.4,86.9l-1.1-2.11c-.36-.71-.75-1.4-1.09-2.12l-1-2.17a128.17,128.17,0,0,1-6.31-17.89,202.67,202.67,0,0,1-6.35-37.28A216.42,216.42,0,0,1-73-12.48a188.57,188.57,0,0,1,2.87-18.74,141,141,0,0,1,5.26-18.25A92.34,92.34,0,0,1-56.4-66.52,61.55,61.55,0,0,1-43.91-81c1.22-1,2.56-1.93,3.84-2.9.33-.23.64-.49,1-.7l1-.61L-36-86.4a23.58,23.58,0,0,1,4.38-2.12c1.51-.57,3-1,4.58-1.47A83.78,83.78,0,0,1-8.18-92.7a62.63,62.63,0,0,1,9.56.41,31.47,31.47,0,0,1,9.37,2.52,14.67,14.67,0,0,1,4.16,2.83,17.36,17.36,0,0,1,2.95,4,26.19,26.19,0,0,1,2.59,9.4,61,61,0,0,1-1.69,19,90.94,90.94,0,0,1-6.18,18C6.92-25.06-2-15.53-12.49-8.4A89.32,89.32,0,0,1-47.36,5.84c-3.12.52-6.26.88-9.39,1.16s-6.26.54-9.4.75c-6.27.42-12.56.67-18.85.69a181.22,181.22,0,0,1-18.83-.86A92.77,92.77,0,0,1-122.29,4Z" transform="translate(122.29 97.67)" />
</g>
<g style="opacity:0.6000000000000001">
  <path class="teal" d="M-108.44,8.57a92.58,92.58,0,0,0,18.5,3.23,181.77,181.77,0,0,0,18.79.54c6.27-.12,12.53-.48,18.78-1,3.12-.26,6.24-.57,9.36-.9s6.21-.73,9.27-1.3A88.15,88.15,0,0,0,.37-5.21c10.16-7.08,18.8-16.5,24.14-27.6a88.77,88.77,0,0,0,5.84-17.58,59.58,59.58,0,0,0,1.56-18.25,23.83,23.83,0,0,0-2.35-8.51,15,15,0,0,0-2.52-3.43,12.26,12.26,0,0,0-3.5-2.34,29.1,29.1,0,0,0-8.63-2.28,60.16,60.16,0,0,0-9.18-.36A81.28,81.28,0,0,0-12.5-82.88c-1.48.41-2.93.87-4.34,1.41a21.16,21.16,0,0,0-4,2l-2,1.16-1,.58c-.32.2-.62.45-.93.67-1.21.93-2.48,1.78-3.64,2.76A58.9,58.9,0,0,0-40.28-60.44a89.63,89.63,0,0,0-8.15,16.57A140,140,0,0,0-53.63-26,185.93,185.93,0,0,0-56.51-7.6a213.86,213.86,0,0,0-.37,37.36A200.25,200.25,0,0,0-50.73,66.6a128.14,128.14,0,0,0,6.12,17.57l.94,2.12c.32.71.69,1.38,1,2.07l1.05,2.06,1.14,2c.76,1.37,1.52,2.73,2.32,4.07s1.57,2.7,2.4,4A125,125,0,0,0-25,115.78a72,72,0,0,0,13.53,12.63,57.11,57.11,0,0,0,16.57,8.08,80.74,80.74,0,0,0,18.34,3,51.44,51.44,0,0,0,18.39-1.94,41.23,41.23,0,0,0,15.86-9.42,86.57,86.57,0,0,0,12-14.38c3.56-5.16,6.84-10.52,10.07-15.91-3.09,5.47-6.23,10.91-9.66,16.18a86.8,86.8,0,0,1-11.81,14.73,42.27,42.27,0,0,1-16.07,10,52.83,52.83,0,0,1-18.83,2.36,81.33,81.33,0,0,1-18.78-2.86,59.05,59.05,0,0,1-17.22-8.15,74.12,74.12,0,0,1-14.08-12.84,127.36,127.36,0,0,1-11.17-15.37c-.86-1.33-1.66-2.69-2.48-4s-1.61-2.72-2.39-4.08l-1.17-2.06L-45,89.58c-.36-.71-.76-1.41-1.09-2.13l-1-2.17a128.18,128.18,0,0,1-6.34-17.94A203.08,203.08,0,0,1-59.81,30a216.85,216.85,0,0,1,.23-37.89,189,189,0,0,1,2.87-18.79A141.18,141.18,0,0,1-51.44-45a92.8,92.8,0,0,1,8.51-17.14A62,62,0,0,1-30.35-76.69c1.23-1,2.58-1.94,3.87-2.92.33-.23.64-.49,1-.7l1-.62,2.09-1.23a24,24,0,0,1,4.43-2.14c1.53-.57,3.07-1.05,4.62-1.48a84.18,84.18,0,0,1,19-2.72,63,63,0,0,1,9.63.42,31.87,31.87,0,0,1,9.49,2.57A15.08,15.08,0,0,1,29-82.61a17.77,17.77,0,0,1,3,4.14,26.58,26.58,0,0,1,2.63,9.54A61.2,61.2,0,0,1,33-49.79a91.27,91.27,0,0,1-6.24,18A74.83,74.83,0,0,1,1.52-3.54a89.54,89.54,0,0,1-35,14.23c-3.13.52-6.28.87-9.41,1.14s-6.27.52-9.41.73c-6.28.4-12.57.65-18.86.65A180.26,180.26,0,0,1-90,12.28,92.82,92.82,0,0,1-108.44,8.57Z" transform="translate(122.29 97.67)" />
</g>
<g style="opacity:0.5">
  <path class="teal" d="M-117.68-.66A92.66,92.66,0,0,0-99.19,2.7a180.86,180.86,0,0,0,18.8.61c6.27-.1,12.54-.44,18.79-.94,3.13-.25,6.25-.55,9.37-.87S-46,.79-42.92.24A88.49,88.49,0,0,0-8.62-14.09c10.23-7.09,19-16.54,24.37-27.73A89.34,89.34,0,0,0,21.69-59.5a59.93,59.93,0,0,0,1.6-18.44,24.42,24.42,0,0,0-2.41-8.73,15.56,15.56,0,0,0-2.62-3.59,12.86,12.86,0,0,0-3.66-2.47,29.69,29.69,0,0,0-8.82-2.34,60.77,60.77,0,0,0-9.27-.38,81.89,81.89,0,0,0-18.4,2.69,32.14,32.14,0,0,0-8.51,3.43l-2,1.18-1,.59c-.33.2-.62.45-.94.68-1.22.94-2.51,1.8-3.69,2.8A59.56,59.56,0,0,0-50.08-70a90.29,90.29,0,0,0-8.23,16.69,140.22,140.22,0,0,0-5.22,17.94A186.6,186.6,0,0,0-66.4-16.9a214.49,214.49,0,0,0-.34,37.47,200.85,200.85,0,0,0,6.2,36.95,128.13,128.13,0,0,0,6.17,17.65l.95,2.13c.32.71.7,1.39,1,2.08l1.06,2.07,1.15,2c.77,1.37,1.53,2.73,2.33,4.07s1.58,2.7,2.42,4a125.49,125.49,0,0,0,10.86,15.24,72.43,72.43,0,0,0,13.64,12.68A57.53,57.53,0,0,0-4.2,127.63a80.93,80.93,0,0,0,18.43,3,51.74,51.74,0,0,0,18.48-2,41.47,41.47,0,0,0,15.92-9.53,86.55,86.55,0,0,0,12-14.45c3.53-5.19,6.77-10.57,10-16-3.12,5.45-6.3,10.87-9.77,16.11A86.87,86.87,0,0,1,49,119.39a42,42,0,0,1-16,9.84,52.52,52.52,0,0,1-18.73,2.28,81.13,81.13,0,0,1-18.69-2.89,58.64,58.64,0,0,1-17.09-8.13,73.66,73.66,0,0,1-14-12.79A126.82,126.82,0,0,1-46.62,92.36c-.86-1.32-1.65-2.68-2.46-4s-1.6-2.71-2.38-4.08l-1.17-2.05-1.1-2.11c-.36-.71-.75-1.4-1.08-2.12l-1-2.16a128.15,128.15,0,0,1-6.3-17.86A202.47,202.47,0,0,1-68.42,20.7a216.21,216.21,0,0,1,.26-37.78,188.35,188.35,0,0,1,2.87-18.71A140.91,140.91,0,0,1-60-54a92.11,92.11,0,0,1,8.44-17,61.33,61.33,0,0,1,12.44-14.4c1.22-1,2.55-1.92,3.82-2.89.33-.23.63-.49,1-.7l1-.61,2.06-1.22a23.39,23.39,0,0,1,4.35-2.1c1.5-.57,3-1,4.56-1.46A83.55,83.55,0,0,1-3.55-97.1,62.41,62.41,0,0,1,6-96.7a31.27,31.27,0,0,1,9.31,2.5,14.47,14.47,0,0,1,4.1,2.79,17.16,17.16,0,0,1,2.91,4,26,26,0,0,1,2.57,9.32,60.85,60.85,0,0,1-1.68,18.94A90.77,90.77,0,0,1,17-41.22C11.4-29.79,2.46-20.26-8-13.13A89.23,89.23,0,0,1-42.76,1.12c-3.11.53-6.25.88-9.38,1.17s-6.26.55-9.4.76c-6.27.43-12.55.69-18.84.71a181.19,181.19,0,0,1-18.83-.84A92.77,92.77,0,0,1-117.68-.66Z" transform="translate(122.29 97.67)" />
</g>
<path d="M-4.55,48.38H.09v-30H-4.55V16.64H19v7.44H17V18.43H2.18v13.7H14.05V34H2.18V48.38H17V42.73h2v7.44H-4.55Z" transform="translate(122.29 97.67)" class="dark-grey"/>
<path d="M36.63,48.38h4.64v-30H36.63V16.64H48.19v1.78H43.35v30H57V42.47h2v7.69H36.63Z" transform="translate(122.29 97.67)" class="dark-grey"/>
<path d="M76.16,48.38h4.89v-30H76.16V16.64H88.08v1.78H83.14v30h4.94v1.79H76.16Z" transform="translate(122.29 97.67)" class="dark-grey"/>
<path d="M112.71,48.38h5v-30H107.16v5.91h-2V16.64h27.21v7.69h-2V18.43H119.79v30h4.94v1.79h-12Z" transform="translate(122.29 97.67)" class="dark-grey"/>
<path d="M149.41,48.38H154v-30h-4.64V16.64H173v7.44h-2V18.43H156.14v13.7H168V34H156.14V48.38H171V42.73h2v7.44H149.41Z" transform="translate(122.29 97.67)" class="dark-grey"/>
<path d="M-3.86,68.24A6.83,6.83,0,1,1,2.95,75.3,6.85,6.85,0,0,1-3.86,68.24Zm12.78,0a6,6,0,0,0-6-6.31A6.32,6.32,0,0,0,3,74.55,6,6,0,0,0,8.93,68.24Z" transform="translate(122.29 97.67)" class="grey"/>
<path d="M13,74.34h1.89V62.14H13v-.73h5.1c2.86,0,4.67,1.6,4.67,3.82A3.81,3.81,0,0,1,19.46,69l3.4,5.35h1.66v.73H22.29l-3.72-5.94c-.23,0-.52,0-.79,0-.75,0-1.49,0-2.05,0v5.19h1.93v.73H13Zm8.9-9.09c0-1.91-1.48-3.11-3.86-3.11h-2.3V68.4c.62,0,1.37,0,2.09,0C20.21,68.45,21.89,67.35,21.89,65.25Z" transform="translate(122.29 97.67)" class="grey"/>
<path d="M29.82,74.34h2V62.14h-4.3v2.41h-.83V61.41H37.81v3.13H37V62.14H32.7v12.2h2v.73h-4.9Z" transform="translate(122.29 97.67)" class="grey"/>
<path d="M41.45,74.34h1.89V62.14H41.45v-.73h4.67v.73H44.19v5.52h8.47V62.14H50.75v-.73h4.67v.73H53.51v12.2h1.91v.73H50.75v-.73h1.91V68.43H44.19v5.91h1.93v.73H41.45Z" transform="translate(122.29 97.67)" class="grey"/>
<path d="M58.6,68.24a6.83,6.83,0,1,1,6.81,7.06A6.85,6.85,0,0,1,58.6,68.24Zm12.78,0a6,6,0,1,0-6,6.31A6,6,0,0,0,71.38,68.24Z" transform="translate(122.29 97.67)" class="grey"/>
<path d="M75.45,74.34h1.89V62.14H75.45v-.73h5.06c4.77,0,7.64,2.74,7.64,6.75s-2.78,6.91-7.59,6.91H75.45Zm5.19,0c4.4,0,6.66-2.55,6.66-6.2s-2.47-6-6.81-6H78.18v12.2Z" transform="translate(122.29 97.67)" class="grey"/>
<path d="M92,68.24a6.83,6.83,0,1,1,6.81,7.06A6.85,6.85,0,0,1,92,68.24Zm12.78,0a6,6,0,1,0-6,6.31A6,6,0,0,0,104.8,68.24Z" transform="translate(122.29 97.67)" class="grey"/>
<path d="M111.56,62.89V74.34h2v.73h-4.65v-.73h1.89V62.14h-1.89v-.73h2.62l8.76,12V62.14H118.3v-.73h4.61v.73H121v13h-.5Z" transform="translate(122.29 97.67)" class="grey"/>
<path d="M129.51,74.34h2V62.14h-4.29v2.41h-.83V61.41H137.5v3.13h-.83V62.14H132.4v12.2h2v.73h-4.9Z" transform="translate(122.29 97.67)" class="grey"/>
<path d="M141.16,74.34h2V62.14h-2v-.73H146v.73h-2v12.2h2v.73h-4.86Z" transform="translate(122.29 97.67)" class="grey"/>
<path d="M149.08,68.34a6.9,6.9,0,0,1,6.77-7.16c2.82,0,5,1.78,5,3.44a.88.88,0,0,1-.85,1,.74.74,0,0,1-.75-.75.76.76,0,0,1,.64-.77c-.27-.91-1.8-2.16-4.07-2.16-3.45,0-5.89,2.95-5.89,6.39a6,6,0,0,0,6,6.23,6.44,6.44,0,0,0,4.5-1.85l.46.58a7,7,0,0,1-5,2A6.78,6.78,0,0,1,149.08,68.34Z" transform="translate(122.29 97.67)" class="grey"/>
<path d="M164.85,72.6c0-.58.33-1,.77-1a.71.71,0,0,1,.7.7.94.94,0,0,1-.45.79,3.75,3.75,0,0,0,3.26,1.39c2.08,0,3.38-1.19,3.38-2.89s-1.58-2.47-3.28-3.15c-2.06-.81-3.88-1.66-3.88-3.86,0-2,1.64-3.42,4-3.42,2.1,0,3.78,1.29,3.78,2.53a.79.79,0,0,1-.75.87.72.72,0,0,1-.72-.73,1,1,0,0,1,.39-.75A3.35,3.35,0,0,0,169.27,62c-1.83,0-3.09,1.12-3.09,2.61,0,1.74,1.55,2.43,3.38,3.16,2,.79,3.78,1.68,3.78,3.86s-1.81,3.7-4.26,3.7S164.85,73.78,164.85,72.6Z" transform="translate(122.29 97.67)" class="grey"/>
</svg>
