<svg id="24455061-21ae-4b09-a069-61d708ac5f11" data-name="Layer 1" xmlns="http://www.w3.org/2000/svg" viewBox="0 0 49.5 49.5"><title>smiley-face</title><g id="11a30482-b1b7-4423-a786-704becf0d9ae" data-name="a"><path d="M42.49,42.49A23.78,23.78,0,0,0,49.75,25,23.81,23.81,0,0,0,42.49,7.48,23.83,23.83,0,0,0,25,.25,23.86,23.86,0,0,0,7.48,7.48a24.78,24.78,0,0,0-5,7,24.24,24.24,0,0,0-1.21,3.14A25.85,25.85,0,0,0,.25,25,23.83,23.83,0,0,0,7.48,42.49,26.12,26.12,0,0,0,12,46.12a23.94,23.94,0,0,0,13,3.63,23.73,23.73,0,0,0,13-3.63,25.6,25.6,0,0,0,4.51-3.63M25,3.88a20.26,20.26,0,0,1,14.9,6.19A20.29,20.29,0,0,1,46.09,25,20.26,20.26,0,0,1,39.9,39.9,20.26,20.26,0,0,1,25,46.09,20.29,20.29,0,0,1,10.07,39.9,20.26,20.26,0,0,1,3.88,25a21.35,21.35,0,0,1,1.24-7.34,20.64,20.64,0,0,1,1.46-3.14,22.29,22.29,0,0,1,3.49-4.46A20.29,20.29,0,0,1,25,3.88M28.66,20.6a3,3,0,0,0,.82,2.15,2.51,2.51,0,0,0,1.93.88,2.59,2.59,0,0,0,2-.88,3.08,3.08,0,0,0,.8-2.15,3.14,3.14,0,0,0-.8-2.15,2.59,2.59,0,0,0-2-.88,2.51,2.51,0,0,0-1.93.88,3.08,3.08,0,0,0-.82,2.15m-8.09,2.15a3.08,3.08,0,0,0,.8-2.15,3.14,3.14,0,0,0-.8-2.15,2.59,2.59,0,0,0-2-.88,2.51,2.51,0,0,0-1.93.88,3.08,3.08,0,0,0-.82,2.15,3,3,0,0,0,.82,2.15,2.51,2.51,0,0,0,1.93.88,2.59,2.59,0,0,0,2-.88m-9.41,5.72a14,14,0,0,0,6.68,10.7,13.23,13.23,0,0,0,14.27,0q6.13-4.1,6.71-10.7.05-1.13-1.65-.71l-3.9.77a30.91,30.91,0,0,1-8.28,1,31,31,0,0,1-8.3-1l-3.88-.77Q11.14,27.34,11.17,28.46Z" transform="translate(-0.25 -0.25)" style="fill:#010101"/></g></svg>