<svg id="38da7de2-5eeb-47b6-b45c-e6ea26a0e581" data-name="Layer 1" xmlns="http://www.w3.org/2000/svg" viewBox="0 0 50 50"><title>twitter</title><path d="M3.53,7.05C1.15,12.34,1.69,16.89,6,20.93L1.59,19.7C1.94,24.95,4.73,28.15,9.5,30l-4,0a10.6,10.6,0,0,0,9.36,7.27A20.76,20.76,0,0,1,.2,41.34a1.93,1.93,0,0,0,.56.48,28.51,28.51,0,0,0,12,4c6.36.61,12.45-.39,17.89-3.77C39.93,36.31,44.57,27.75,45,16.89a2.16,2.16,0,0,1,1-1.87A17,17,0,0,0,50,10.62c-1,.34-1.84.64-2.67.87s-1.66.36-2.49.53a11.78,11.78,0,0,0,3.78-5.23c-1.91.65-3.76,1.33-5.64,1.89a1.56,1.56,0,0,1-1.26-.33A9.88,9.88,0,0,0,31.39,6.16,9.58,9.58,0,0,0,24.63,14a26.55,26.55,0,0,0-.07,4,29.59,29.59,0,0,1-21-11" style="fill:#010101"/></svg>